<?xml version="1.0" encoding="UTF-8" standalone="no"?>
<!-- Created with Inkscape (http://www.inkscape.org/) -->

<svg
   version="1.1"
   id="svg2"
   xml:space="preserve"
   width="1122.5197"
   height="793.70081"
   viewBox="0 0 1122.5197 793.70081"
   sodipodi:docname="stencil.svg"
   inkscape:version="1.1 (c4e8f9e, 2021-05-24)"
   xmlns:inkscape="http://www.inkscape.org/namespaces/inkscape"
   xmlns:sodipodi="http://sodipodi.sourceforge.net/DTD/sodipodi-0.dtd"
   xmlns="http://www.w3.org/2000/svg"
   xmlns:svg="http://www.w3.org/2000/svg"><defs
     id="defs6"><clipPath
       clipPathUnits="userSpaceOnUse"
       id="clipPath18"><path
         d="M 0,0 H 841 V 595 H 0 Z"
         id="path16" /></clipPath></defs><sodipodi:namedview
     id="namedview4"
     pagecolor="#ffffff"
     bordercolor="#666666"
     borderopacity="1.0"
     inkscape:pageshadow="2"
     inkscape:pageopacity="0.0"
     inkscape:pagecheckerboard="0"
     showgrid="false"
     inkscape:zoom="0.5316865"
     inkscape:cx="281.18074"
     inkscape:cy="236.04135"
     inkscape:window-width="1864"
     inkscape:window-height="1016"
     inkscape:window-x="56"
     inkscape:window-y="27"
     inkscape:window-maximized="1"
     inkscape:current-layer="g12" /><g
     id="g8"
     inkscape:groupmode="layer"
     inkscape:label="output"
     transform="matrix(1.3333333,0,0,1.3333333,0,2.184252e-5)"><g
       id="g10" /><g
       id="g12"><rect
         style="fill:#ffffff;stroke-width:1.41732;stop-color:#000000"
         id="rect2612"
         width="559.16174"
         height="489.54913"
         x="131.84315"
         y="77.923637" /><g
         id="g2572"
         inkscape:export-filename="/home/dusjagr/Documents/SGMK/BitBadge-2022/BitBadge_stencil.jpg"
         inkscape:export-xdpi="600"
         inkscape:export-ydpi="600"
         transform="matrix(0.92025321,0,0,0.92025321,27.72445,18.559231)"><path
           d="m 411.148,351.781 h 8.508 v 3.688 h -8.508 z"
           style="fill:#000000;fill-opacity:1;fill-rule:nonzero;stroke:none"
           id="path54" /><path
           d="m 395.281,359.73 h 8.504 v 3.676 h -8.504 z"
           style="fill:#000000;fill-opacity:1;fill-rule:nonzero;stroke:none"
           id="path56" /><path
           d="m 395.281,367.664 h 8.504 v 3.676 h -8.504 z"
           style="fill:#000000;fill-opacity:1;fill-rule:nonzero;stroke:none"
           id="path58" /><path
           d="m 411.148,359.73 h 8.508 v 3.676 h -8.508 z"
           style="fill:#000000;fill-opacity:1;fill-rule:nonzero;stroke:none"
           id="path60" /><path
           d="m 411.148,367.664 h 8.508 v 3.676 h -8.508 z"
           style="fill:#000000;fill-opacity:1;fill-rule:nonzero;stroke:none"
           id="path62" /><path
           d="m 395.281,312.105 h 8.504 v 3.676 h -8.504 z"
           style="fill:#000000;fill-opacity:1;fill-rule:nonzero;stroke:none"
           id="path64" /><path
           d="m 395.281,320.039 h 8.504 v 3.691 h -8.504 z"
           style="fill:#000000;fill-opacity:1;fill-rule:nonzero;stroke:none"
           id="path66" /><path
           d="m 411.148,312.105 h 8.508 v 3.676 h -8.508 z"
           style="fill:#000000;fill-opacity:1;fill-rule:nonzero;stroke:none"
           id="path68" /><path
           d="m 411.148,320.039 h 8.508 v 3.691 h -8.508 z"
           style="fill:#000000;fill-opacity:1;fill-rule:nonzero;stroke:none"
           id="path70" /><path
           d="m 395.281,327.977 h 8.504 v 3.688 h -8.504 z"
           style="fill:#000000;fill-opacity:1;fill-rule:nonzero;stroke:none"
           id="path72" /><path
           d="m 363.523,335.91 h 8.508 v 3.691 h -8.508 z"
           style="fill:#000000;fill-opacity:1;fill-rule:nonzero;stroke:none"
           id="path74" /><path
           d="m 363.523,343.844 h 8.508 v 3.691 h -8.508 z"
           style="fill:#000000;fill-opacity:1;fill-rule:nonzero;stroke:none"
           id="path76" /><path
           d="m 363.523,351.781 h 8.508 v 3.688 h -8.508 z"
           style="fill:#000000;fill-opacity:1;fill-rule:nonzero;stroke:none"
           id="path78" /><path
           d="m 379.41,343.844 h 8.504 v 3.691 h -8.504 z"
           style="fill:#000000;fill-opacity:1;fill-rule:nonzero;stroke:none"
           id="path80" /><path
           d="m 379.41,351.781 h 8.504 v 3.688 h -8.504 z"
           style="fill:#000000;fill-opacity:1;fill-rule:nonzero;stroke:none"
           id="path82" /><path
           d="m 395.281,335.91 h 8.504 v 3.691 h -8.504 z"
           style="fill:#000000;fill-opacity:1;fill-rule:nonzero;stroke:none"
           id="path84" /><path
           d="m 411.148,335.91 h 8.508 v 3.691 h -8.508 z"
           style="fill:#000000;fill-opacity:1;fill-rule:nonzero;stroke:none"
           id="path86" /><path
           d="m 395.281,343.844 h 8.504 v 3.691 h -8.504 z"
           style="fill:#000000;fill-opacity:1;fill-rule:nonzero;stroke:none"
           id="path88" /><path
           d="m 395.281,351.781 h 8.504 v 3.688 h -8.504 z"
           style="fill:#000000;fill-opacity:1;fill-rule:nonzero;stroke:none"
           id="path90" /><path
           d="m 411.148,343.844 h 8.508 v 3.691 h -8.508 z"
           style="fill:#000000;fill-opacity:1;fill-rule:nonzero;stroke:none"
           id="path92" /><path
           d="m 411.148,327.977 h 8.508 v 3.688 h -8.508 z"
           style="fill:#000000;fill-opacity:1;fill-rule:nonzero;stroke:none"
           id="path94" /><path
           d="m 427.02,327.977 h 8.504 v 3.688 h -8.504 z"
           style="fill:#000000;fill-opacity:1;fill-rule:nonzero;stroke:none"
           id="path96" /><path
           d="m 427.02,335.91 h 8.504 v 3.691 h -8.504 z"
           style="fill:#000000;fill-opacity:1;fill-rule:nonzero;stroke:none"
           id="path98" /><path
           d="m 427.02,343.844 h 8.504 v 3.691 h -8.504 z"
           style="fill:#000000;fill-opacity:1;fill-rule:nonzero;stroke:none"
           id="path100" /><path
           d="m 427.02,351.781 h 8.504 v 3.688 h -8.504 z"
           style="fill:#000000;fill-opacity:1;fill-rule:nonzero;stroke:none"
           id="path102" /><path
           d="m 427.02,359.73 h 8.504 v 3.676 h -8.504 z"
           style="fill:#000000;fill-opacity:1;fill-rule:nonzero;stroke:none"
           id="path104" /><path
           d="m 427.02,367.664 h 8.504 v 3.676 h -8.504 z"
           style="fill:#000000;fill-opacity:1;fill-rule:nonzero;stroke:none"
           id="path106" /><path
           d="m 395.281,232.727 h 8.504 v 3.688 h -8.504 z"
           style="fill:#000000;fill-opacity:1;fill-rule:nonzero;stroke:none"
           id="path108" /><path
           d="m 395.281,240.676 h 8.504 v 3.676 h -8.504 z"
           style="fill:#000000;fill-opacity:1;fill-rule:nonzero;stroke:none"
           id="path110" /><path
           d="m 411.148,232.727 h 8.508 v 3.688 h -8.508 z"
           style="fill:#000000;fill-opacity:1;fill-rule:nonzero;stroke:none"
           id="path112" /><path
           d="m 427.02,232.727 h 8.504 v 3.688 h -8.504 z"
           style="fill:#000000;fill-opacity:1;fill-rule:nonzero;stroke:none"
           id="path114" /><path
           d="m 379.41,248.609 h 8.504 v 3.676 h -8.504 z"
           style="fill:#000000;fill-opacity:1;fill-rule:nonzero;stroke:none"
           id="path116" /><path
           d="m 379.41,256.547 h 8.504 v 3.672 h -8.504 z"
           style="fill:#000000;fill-opacity:1;fill-rule:nonzero;stroke:none"
           id="path118" /><path
           d="m 395.281,248.609 h 8.504 v 3.676 h -8.504 z"
           style="fill:#000000;fill-opacity:1;fill-rule:nonzero;stroke:none"
           id="path120" /><path
           d="m 395.281,256.547 h 8.504 v 3.672 h -8.504 z"
           style="fill:#000000;fill-opacity:1;fill-rule:nonzero;stroke:none"
           id="path122" /><path
           d="m 395.281,264.48 h 8.504 v 3.691 h -8.504 z"
           style="fill:#000000;fill-opacity:1;fill-rule:nonzero;stroke:none"
           id="path124" /><path
           d="m 363.523,248.609 h 8.508 v 3.676 h -8.508 z"
           style="fill:#000000;fill-opacity:1;fill-rule:nonzero;stroke:none"
           id="path126" /><path
           d="m 363.523,256.547 h 8.508 v 3.672 h -8.508 z"
           style="fill:#000000;fill-opacity:1;fill-rule:nonzero;stroke:none"
           id="path128" /><path
           d="m 363.523,264.48 h 8.508 v 3.691 h -8.508 z"
           style="fill:#000000;fill-opacity:1;fill-rule:nonzero;stroke:none"
           id="path130" /><path
           d="m 379.41,264.48 h 8.504 v 3.691 h -8.504 z"
           style="fill:#000000;fill-opacity:1;fill-rule:nonzero;stroke:none"
           id="path132" /><path
           d="m 379.41,272.414 h 8.504 v 3.691 h -8.504 z"
           style="fill:#000000;fill-opacity:1;fill-rule:nonzero;stroke:none"
           id="path134" /><path
           d="m 411.148,240.676 h 8.508 v 3.676 h -8.508 z"
           style="fill:#000000;fill-opacity:1;fill-rule:nonzero;stroke:none"
           id="path136" /><path
           d="m 411.148,248.609 h 8.508 v 3.676 h -8.508 z"
           style="fill:#000000;fill-opacity:1;fill-rule:nonzero;stroke:none"
           id="path138" /><path
           d="m 411.148,256.547 h 8.508 v 3.672 h -8.508 z"
           style="fill:#000000;fill-opacity:1;fill-rule:nonzero;stroke:none"
           id="path140" /><path
           d="m 411.148,264.48 h 8.508 v 3.691 h -8.508 z"
           style="fill:#000000;fill-opacity:1;fill-rule:nonzero;stroke:none"
           id="path142" /><path
           d="m 411.148,272.414 h 8.508 v 3.691 h -8.508 z"
           style="fill:#000000;fill-opacity:1;fill-rule:nonzero;stroke:none"
           id="path144" /><path
           d="m 427.02,240.676 h 8.504 v 3.676 h -8.504 z"
           style="fill:#000000;fill-opacity:1;fill-rule:nonzero;stroke:none"
           id="path146" /><path
           d="m 427.02,248.609 h 8.504 v 3.676 h -8.504 z"
           style="fill:#000000;fill-opacity:1;fill-rule:nonzero;stroke:none"
           id="path148" /><path
           d="m 427.02,256.547 h 8.504 v 3.672 h -8.504 z"
           style="fill:#000000;fill-opacity:1;fill-rule:nonzero;stroke:none"
           id="path150" /><path
           d="m 427.02,264.48 h 8.504 v 3.691 h -8.504 z"
           style="fill:#000000;fill-opacity:1;fill-rule:nonzero;stroke:none"
           id="path152" /><path
           d="m 427.02,272.414 h 8.504 v 3.691 h -8.504 z"
           style="fill:#000000;fill-opacity:1;fill-rule:nonzero;stroke:none"
           id="path154" /><path
           d="m 442.906,248.609 h 8.504 v 3.676 h -8.504 z"
           style="fill:#000000;fill-opacity:1;fill-rule:nonzero;stroke:none"
           id="path156" /><path
           d="m 442.906,256.547 h 8.504 v 3.672 h -8.504 z"
           style="fill:#000000;fill-opacity:1;fill-rule:nonzero;stroke:none"
           id="path158" /><path
           d="m 458.773,248.609 h 8.508 v 3.676 h -8.508 z"
           style="fill:#000000;fill-opacity:1;fill-rule:nonzero;stroke:none"
           id="path160" /><path
           d="m 458.773,256.547 h 8.508 v 3.672 h -8.508 z"
           style="fill:#000000;fill-opacity:1;fill-rule:nonzero;stroke:none"
           id="path162" /><path
           d="m 458.773,264.48 h 8.508 v 3.691 h -8.508 z"
           style="fill:#000000;fill-opacity:1;fill-rule:nonzero;stroke:none"
           id="path164" /><path
           d="m 363.523,272.414 h 8.508 v 3.691 h -8.508 z"
           style="fill:#000000;fill-opacity:1;fill-rule:nonzero;stroke:none"
           id="path166" /><path
           d="m 363.523,280.352 h 8.508 v 3.688 h -8.508 z"
           style="fill:#000000;fill-opacity:1;fill-rule:nonzero;stroke:none"
           id="path168" /><path
           d="m 363.523,288.285 h 8.508 v 3.691 h -8.508 z"
           style="fill:#000000;fill-opacity:1;fill-rule:nonzero;stroke:none"
           id="path170" /><path
           d="m 379.41,280.352 h 8.504 v 3.688 h -8.504 z"
           style="fill:#000000;fill-opacity:1;fill-rule:nonzero;stroke:none"
           id="path172" /><path
           d="m 395.281,272.414 h 8.504 v 3.691 h -8.504 z"
           style="fill:#000000;fill-opacity:1;fill-rule:nonzero;stroke:none"
           id="path174" /><path
           d="m 395.281,280.352 h 8.504 v 3.688 h -8.504 z"
           style="fill:#000000;fill-opacity:1;fill-rule:nonzero;stroke:none"
           id="path176" /><path
           d="m 395.281,288.285 h 8.504 v 3.691 h -8.504 z"
           style="fill:#000000;fill-opacity:1;fill-rule:nonzero;stroke:none"
           id="path178" /><path
           d="m 411.148,280.352 h 8.508 v 3.688 h -8.508 z"
           style="fill:#000000;fill-opacity:1;fill-rule:nonzero;stroke:none"
           id="path180" /><path
           d="m 427.02,280.352 h 8.504 v 3.688 h -8.504 z"
           style="fill:#000000;fill-opacity:1;fill-rule:nonzero;stroke:none"
           id="path182" /><path
           d="m 427.02,288.285 h 8.504 v 3.691 h -8.504 z"
           style="fill:#000000;fill-opacity:1;fill-rule:nonzero;stroke:none"
           id="path184" /><path
           d="m 427.02,296.219 h 8.504 v 3.691 h -8.504 z"
           style="fill:#000000;fill-opacity:1;fill-rule:nonzero;stroke:none"
           id="path186" /><path
           d="m 427.02,304.172 h 8.504 v 3.672 h -8.504 z"
           style="fill:#000000;fill-opacity:1;fill-rule:nonzero;stroke:none"
           id="path188" /><path
           d="m 427.02,312.105 h 8.504 v 3.676 h -8.504 z"
           style="fill:#000000;fill-opacity:1;fill-rule:nonzero;stroke:none"
           id="path190" /><path
           d="m 427.02,320.039 h 8.504 v 3.691 h -8.504 z"
           style="fill:#000000;fill-opacity:1;fill-rule:nonzero;stroke:none"
           id="path192" /><path
           d="m 442.906,264.48 h 8.504 v 3.691 h -8.504 z"
           style="fill:#000000;fill-opacity:1;fill-rule:nonzero;stroke:none"
           id="path194" /><path
           d="m 442.906,272.414 h 8.504 v 3.691 h -8.504 z"
           style="fill:#000000;fill-opacity:1;fill-rule:nonzero;stroke:none"
           id="path196" /><path
           d="m 458.773,272.414 h 8.508 v 3.691 h -8.508 z"
           style="fill:#000000;fill-opacity:1;fill-rule:nonzero;stroke:none"
           id="path198" /><path
           d="m 442.906,280.352 h 8.504 v 3.688 h -8.504 z"
           style="fill:#000000;fill-opacity:1;fill-rule:nonzero;stroke:none"
           id="path200" /><path
           d="m 458.773,280.352 h 8.508 v 3.688 h -8.508 z"
           style="fill:#000000;fill-opacity:1;fill-rule:nonzero;stroke:none"
           id="path202" /><path
           d="m 458.773,288.285 h 8.508 v 3.691 h -8.508 z"
           style="fill:#000000;fill-opacity:1;fill-rule:nonzero;stroke:none"
           id="path204" /><path
           d="m 474.645,280.352 h 8.504 v 3.688 h -8.504 z"
           style="fill:#000000;fill-opacity:1;fill-rule:nonzero;stroke:none"
           id="path206" /><path
           d="m 474.645,288.285 h 8.504 v 3.691 h -8.504 z"
           style="fill:#000000;fill-opacity:1;fill-rule:nonzero;stroke:none"
           id="path208" /><path
           d="m 474.645,296.219 h 8.504 v 3.691 h -8.504 z"
           style="fill:#000000;fill-opacity:1;fill-rule:nonzero;stroke:none"
           id="path210" /><path
           d="m 474.645,304.172 h 8.504 v 3.672 h -8.504 z"
           style="fill:#000000;fill-opacity:1;fill-rule:nonzero;stroke:none"
           id="path212" /><path
           d="m 474.645,312.105 h 8.504 v 3.676 h -8.504 z"
           style="fill:#000000;fill-opacity:1;fill-rule:nonzero;stroke:none"
           id="path214" /><path
           d="m 474.645,320.039 h 8.504 v 3.691 h -8.504 z"
           style="fill:#000000;fill-opacity:1;fill-rule:nonzero;stroke:none"
           id="path216" /><path
           d="m 442.906,288.285 h 8.504 v 3.691 h -8.504 z"
           style="fill:#000000;fill-opacity:1;fill-rule:nonzero;stroke:none"
           id="path218" /><path
           d="m 442.906,296.219 h 8.504 v 3.691 h -8.504 z"
           style="fill:#000000;fill-opacity:1;fill-rule:nonzero;stroke:none"
           id="path220" /><path
           d="m 442.906,304.172 h 8.504 v 3.672 h -8.504 z"
           style="fill:#000000;fill-opacity:1;fill-rule:nonzero;stroke:none"
           id="path222" /><path
           d="m 458.773,296.219 h 8.508 v 3.691 h -8.508 z"
           style="fill:#000000;fill-opacity:1;fill-rule:nonzero;stroke:none"
           id="path224" /><path
           d="m 458.773,304.172 h 8.508 v 3.672 h -8.508 z"
           style="fill:#000000;fill-opacity:1;fill-rule:nonzero;stroke:none"
           id="path226" /><path
           d="m 442.906,312.105 h 8.504 v 3.676 h -8.504 z"
           style="fill:#000000;fill-opacity:1;fill-rule:nonzero;stroke:none"
           id="path228" /><path
           d="m 458.773,312.105 h 8.508 v 3.676 h -8.508 z"
           style="fill:#000000;fill-opacity:1;fill-rule:nonzero;stroke:none"
           id="path230" /><path
           d="m 458.773,320.039 h 8.508 v 3.691 h -8.508 z"
           style="fill:#000000;fill-opacity:1;fill-rule:nonzero;stroke:none"
           id="path232" /><path
           d="m 442.906,320.039 h 8.504 v 3.691 h -8.504 z"
           style="fill:#000000;fill-opacity:1;fill-rule:nonzero;stroke:none"
           id="path234" /><path
           d="m 442.906,327.977 h 8.504 v 3.688 h -8.504 z"
           style="fill:#000000;fill-opacity:1;fill-rule:nonzero;stroke:none"
           id="path236" /><path
           d="m 442.906,335.91 h 8.504 v 3.691 h -8.504 z"
           style="fill:#000000;fill-opacity:1;fill-rule:nonzero;stroke:none"
           id="path238" /><path
           d="m 458.773,327.977 h 8.508 v 3.688 h -8.508 z"
           style="fill:#000000;fill-opacity:1;fill-rule:nonzero;stroke:none"
           id="path240" /><path
           d="m 458.773,335.91 h 8.508 v 3.691 h -8.508 z"
           style="fill:#000000;fill-opacity:1;fill-rule:nonzero;stroke:none"
           id="path242" /><path
           d="m 442.906,343.844 h 8.504 v 3.691 h -8.504 z"
           style="fill:#000000;fill-opacity:1;fill-rule:nonzero;stroke:none"
           id="path244" /><path
           d="m 442.906,351.781 h 8.504 v 3.688 h -8.504 z"
           style="fill:#000000;fill-opacity:1;fill-rule:nonzero;stroke:none"
           id="path246" /><path
           d="m 458.773,343.844 h 8.508 v 3.691 h -8.508 z"
           style="fill:#000000;fill-opacity:1;fill-rule:nonzero;stroke:none"
           id="path248" /><path
           d="m 458.773,351.781 h 8.508 v 3.688 h -8.508 z"
           style="fill:#000000;fill-opacity:1;fill-rule:nonzero;stroke:none"
           id="path250" /><path
           d="m 347.656,280.352 h 8.504 v 3.688 h -8.504 z"
           style="fill:#000000;fill-opacity:1;fill-rule:nonzero;stroke:none"
           id="path256" /><path
           d="m 347.656,288.285 h 8.504 v 3.691 h -8.504 z"
           style="fill:#000000;fill-opacity:1;fill-rule:nonzero;stroke:none"
           id="path258" /><path
           d="m 347.656,296.219 h 8.504 v 3.691 h -8.504 z"
           style="fill:#000000;fill-opacity:1;fill-rule:nonzero;stroke:none"
           id="path260" /><path
           d="m 347.656,304.172 h 8.504 v 3.672 h -8.504 z"
           style="fill:#000000;fill-opacity:1;fill-rule:nonzero;stroke:none"
           id="path262" /><path
           d="m 347.656,312.105 h 8.504 v 3.676 h -8.504 z"
           style="fill:#000000;fill-opacity:1;fill-rule:nonzero;stroke:none"
           id="path264" /><path
           d="m 347.656,320.039 h 8.504 v 3.691 h -8.504 z"
           style="fill:#000000;fill-opacity:1;fill-rule:nonzero;stroke:none"
           id="path266" /><path
           d="m 379.41,288.285 h 8.504 v 3.691 h -8.504 z"
           style="fill:#000000;fill-opacity:1;fill-rule:nonzero;stroke:none"
           id="path268" /><path
           d="m 363.523,296.219 h 8.508 v 3.691 h -8.508 z"
           style="fill:#000000;fill-opacity:1;fill-rule:nonzero;stroke:none"
           id="path270" /><path
           d="m 379.41,296.219 h 8.504 v 3.691 h -8.504 z"
           style="fill:#000000;fill-opacity:1;fill-rule:nonzero;stroke:none"
           id="path272" /><path
           d="m 379.41,304.172 h 8.504 v 3.672 h -8.504 z"
           style="fill:#000000;fill-opacity:1;fill-rule:nonzero;stroke:none"
           id="path274" /><path
           d="m 363.523,304.172 h 8.508 v 3.672 h -8.508 z"
           style="fill:#000000;fill-opacity:1;fill-rule:nonzero;stroke:none"
           id="path276" /><path
           d="m 363.523,312.105 h 8.508 v 3.676 h -8.508 z"
           style="fill:#000000;fill-opacity:1;fill-rule:nonzero;stroke:none"
           id="path278" /><path
           d="m 363.523,320.039 h 8.508 v 3.691 h -8.508 z"
           style="fill:#000000;fill-opacity:1;fill-rule:nonzero;stroke:none"
           id="path280" /><path
           d="m 379.41,312.105 h 8.504 v 3.676 h -8.504 z"
           style="fill:#000000;fill-opacity:1;fill-rule:nonzero;stroke:none"
           id="path282" /><path
           d="m 411.148,288.285 h 8.508 v 3.691 h -8.508 z"
           style="fill:#000000;fill-opacity:1;fill-rule:nonzero;stroke:none"
           id="path284" /><path
           d="m 395.281,296.219 h 8.504 v 3.691 h -8.504 z"
           style="fill:#000000;fill-opacity:1;fill-rule:nonzero;stroke:none"
           id="path286" /><path
           d="m 395.281,304.172 h 8.504 v 3.672 h -8.504 z"
           style="fill:#000000;fill-opacity:1;fill-rule:nonzero;stroke:none"
           id="path288" /><path
           d="m 411.148,296.219 h 8.508 v 3.691 h -8.508 z"
           style="fill:#000000;fill-opacity:1;fill-rule:nonzero;stroke:none"
           id="path290" /><path
           d="m 411.148,304.172 h 8.508 v 3.672 h -8.508 z"
           style="fill:#000000;fill-opacity:1;fill-rule:nonzero;stroke:none"
           id="path292" /><path
           d="m 379.41,320.039 h 8.504 v 3.691 h -8.504 z"
           style="fill:#000000;fill-opacity:1;fill-rule:nonzero;stroke:none"
           id="path294" /><path
           d="m 363.523,327.977 h 8.508 v 3.688 h -8.508 z"
           style="fill:#000000;fill-opacity:1;fill-rule:nonzero;stroke:none"
           id="path296" /><path
           d="m 379.41,327.977 h 8.504 v 3.688 h -8.504 z"
           style="fill:#000000;fill-opacity:1;fill-rule:nonzero;stroke:none"
           id="path298" /><path
           d="m 379.41,335.91 h 8.504 v 3.691 h -8.504 z"
           style="fill:#000000;fill-opacity:1;fill-rule:nonzero;stroke:none"
           id="path300" /></g></g></g></svg>
